# xmcd
#
# Track frame offsets: 
#        150
#        16603
#        36058
#        60919
#        73318
#        100153
#        111894
#        119941
#        137089
#        149446
#        174983
#        186374
#        210105
#        218544
#
# Disc length: 3284 seconds
#
# Revision: 0
# Processed by: cddbd v1.5.2PL0 Copyright (c) Steve Scherf et al.
# Submitted via: ExactAudioCopyFreeDBPlugin 1.0
#
DISCID=c60cd20e
DTITLE=Creeping Time - Cheap American Lager
DYEAR=2006
DGENRE=Country
TTITLE0=I'd Be King
TTITLE1=Gone
TTITLE2=Haymaker
TTITLE3=Gary Miner
TTITLE4=Lyman Cutler
TTITLE5=Miscommunication
TTITLE6=Knot in the Rag
TTITLE7=Kitchen Table
TTITLE8=As I Am
TTITLE9=Road Song
TTITLE10=Mac N Miner
TTITLE11=Marcus and Amelia
TTITLE12=Broken Wings
TTITLE13=Cheap American Lager
EXTD=
EXTT0=
EXTT1=
EXTT2=
EXTT3=
EXTT4=
EXTT5=
EXTT6=
EXTT7=
EXTT8=
EXTT9=
EXTT10=
EXTT11=
EXTT12=
EXTT13=
PLAYORDER=
